<svg width="23" height="24" viewBox="0 0 23 24" fill="none" xmlns="http://www.w3.org/2000/svg">
<g clip-path="url(#clip0)">
<path d="M16.2917 2H6.70835C4.06199 2 1.91669 4.23858 1.91669 7V17C1.91669 19.7614 4.06199 22 6.70835 22H16.2917C18.9381 22 21.0834 19.7614 21.0834 17V7C21.0834 4.23858 18.9381 2 16.2917 2Z" stroke="white" stroke-width="2" stroke-linecap="round" stroke-linejoin="round"/>
<path d="M15.3333 11.3701C15.4516 12.2023 15.3154 13.0523 14.944 13.7991C14.5727 14.5459 13.9851 15.1515 13.2649 15.5297C12.5447 15.908 11.7285 16.0397 10.9325 15.906C10.1364 15.7723 9.40102 15.3801 8.83089 14.7852C8.26076 14.1903 7.88491 13.4229 7.75682 12.5923C7.62872 11.7616 7.7549 10.91 8.1174 10.1584C8.4799 9.40691 9.06027 8.7938 9.77595 8.4063C10.4916 8.0188 11.3062 7.87665 12.1038 8.00006C12.9173 8.12594 13.6705 8.52152 14.252 9.12836C14.8336 9.73521 15.2127 10.5211 15.3333 11.3701Z" stroke="white" stroke-width="2" stroke-linecap="round" stroke-linejoin="round"/>
</g>
<defs>
<clipPath id="clip0">
<rect width="23" height="24" fill="white"/>
</clipPath>
</defs>
</svg>
